<svg xmlns="http://www.w3.org/2000/svg" viewBox="0 0 512 512"><path d="M128 0c-17.6 0-32 14.4-32 32v448c0 17.6 14.4 32 32 32h320c17.6 0 32-14.4 32-32V128L352 0H128z" fill="#e2e5e7"/><path d="M384 128h96L352 0v96c0 17.6 14.4 32 32 32z" fill="#b0b7bd"/><path fill="#cad1d8" d="M480 224l-96-96h96z"/><path d="M416 416c0 8.8-7.2 16-16 16H48c-8.8 0-16-7.2-16-16V256c0-8.8 7.2-16 16-16h352c8.8 0 16 7.2 16 16v160z" fill="#f15642"/><path d="M121.408 384.016c-4.096-2.32-6.656-6.912-4.096-12.288l36.72-71.76c3.456-6.784 12.656-7.04 15.856 0l36.08 71.76c5.248 9.968-10.24 17.904-14.848 7.92l-5.632-11.248h-47.2l-5.488 11.264c-2.048 4.352-6.784 5.248-11.392 4.352zm55.008-32.496l-14.464-31.6-15.728 31.6h30.192zm65.184 26.736l-33.776-70.736c-4.992-10.112 10.112-18.416 15.728-7.808l11.392 25.712 14.704 33.76 14.448-33.76 11.392-25.712c5.12-9.712 19.952-3.584 15.616 7.04l-32.624 71.504c-2.944 8.064-12.032 9.984-16.88 0zm65.28-75.104c0-10.48 16.896-10.88 16.896 0v73.04c0 10.624-16.896 10.88-16.896 0v-73.04z" fill="#fff"/><path d="M400 432H96v16h304c8.8 0 16-7.2 16-16v-16c0 8.8-7.2 16-16 16z" fill="#cad1d8"/></svg>