<svg xmlns="http://www.w3.org/2000/svg" viewBox="0 0 512 512"><path d="M128 0c-17.6 0-32 14.4-32 32v448c0 17.6 14.4 32 32 32h320c17.6 0 32-14.4 32-32V128L352 0H128z" fill="#e2e5e7"/><path d="M384 128h96L352 0v96c0 17.6 14.4 32 32 32z" fill="#b0b7bd"/><path fill="#cad1d8" d="M480 224l-96-96h96z"/><path d="M416 416c0 8.8-7.2 16-16 16H48c-8.8 0-16-7.2-16-16V256c0-8.8 7.2-16 16-16h352c8.8 0 16 7.2 16 16v160z" fill="#576d7e"/><path d="M118.08 384c-4.224 0-8.832-2.32-8.832-7.936v-72.656c0-4.608 4.608-7.936 8.832-7.936h29.296c58.464 0 57.184 88.528 1.152 88.528H118.08zm8.064-72.928v57.312h21.232c34.544 0 36.08-57.312 0-57.312h-21.232zm82.464-7.92c0-4.224 3.584-7.808 8.064-7.808 4.096 0 7.552 3.6 7.552 7.808v64.096h34.8c12.528 0 12.8 16.752 0 16.752h-42.336c-4.48 0-8.064-3.184-8.064-7.808v-73.04h-.016zm74.944 0c0-4.224 3.584-7.808 8.064-7.808 4.096 0 7.552 3.6 7.552 7.808v64.096h34.8c12.528 0 12.8 16.752 0 16.752h-42.336c-4.48 0-8.064-3.184-8.064-7.808v-73.04h-.016z" fill="#fff"/><path d="M400 432H96v16h304c8.8 0 16-7.2 16-16v-16c0 8.8-7.2 16-16 16z" fill="#cad1d8"/></svg>