<svg xmlns="http://www.w3.org/2000/svg" viewBox="0 0 512 512"><path d="M128 0c-17.6 0-32 14.4-32 32v448c0 17.6 14.4 32 32 32h320c17.6 0 32-14.4 32-32V128L352 0H128z" fill="#e2e5e7"/><path d="M384 128h96L352 0v96c0 17.6 14.4 32 32 32z" fill="#b0b7bd"/><path fill="#cad1d8" d="M480 224l-96-96h96z"/><path d="M416 416c0 8.8-7.2 16-16 16H48c-8.8 0-16-7.2-16-16V256c0-8.8 7.2-16 16-16h352c8.8 0 16 7.2 16 16v160z" fill="#50bee8"/><path d="M100 303.152c0-4.224 3.328-8.848 8.688-8.848h29.552c16.64 0 31.616 11.136 31.616 32.496 0 20.224-14.976 31.472-31.616 31.472h-21.36v16.896c0 5.648-3.584 8.832-8.192 8.832-4.224 0-8.688-3.184-8.688-8.832v-72.016zm16.88 7.28v31.856h21.36c8.576 0 15.36-7.552 15.36-15.488 0-8.96-6.784-16.368-15.36-16.368h-21.36zm67.44 4.224c2.944-24.816 40.416-29.28 58.08-15.712 8.704 7.024-.512 18.16-8.192 12.528-9.472-6.016-30.96-8.832-33.648 4.464-3.456 20.992 52.192 8.976 51.296 42.992-.896 32.496-47.968 33.264-65.632 18.672-4.24-3.44-4.096-9.056-1.792-12.528 3.328-3.312 7.024-4.464 11.392-.896 10.48 7.168 37.488 12.544 39.392-5.648-1.648-18.912-54.88-7.52-50.896-43.872zM278.24 384c-4.224 0-8.832-2.32-8.832-7.936v-72.656c0-4.608 4.608-7.936 8.832-7.936h29.296C366 295.472 364.72 384 308.688 384H278.24zm8.064-72.928v57.312h21.232c34.544 0 36.08-57.312 0-57.312h-21.232z" fill="#fff"/><path d="M400 432H96v16h304c8.8 0 16-7.2 16-16v-16c0 8.8-7.2 16-16 16z" fill="#cad1d8"/></svg>