<svg xmlns="http://www.w3.org/2000/svg" viewBox="0 0 512 512"><path d="M128 0c-17.6 0-32 14.4-32 32v448c0 17.6 14.4 32 32 32h320c17.6 0 32-14.4 32-32V128L352 0H128z" fill="#e2e5e7"/><path d="M384 128h96L352 0v96c0 17.6 14.4 32 32 32z" fill="#b0b7bd"/><path fill="#cad1d8" d="M480 224l-96-96h96z"/><path d="M416 416c0 8.8-7.2 16-16 16H48c-8.8 0-16-7.2-16-16V256c0-8.8 7.2-16 16-16h352c8.8 0 16 7.2 16 16v160z" fill="#f15642"/><path d="M98.128 314.672c2.944-24.832 40.416-29.296 58.064-15.728 8.704 7.024-.496 18.16-8.192 12.528-9.456-6-30.96-8.816-33.648 4.464-3.456 20.992 52.208 8.976 51.296 43.008-.896 32.496-47.968 33.248-65.632 18.672-4.224-3.456-4.096-9.072-1.776-12.544 3.312-3.312 7.024-4.464 11.376-.88 10.496 7.152 37.488 12.528 39.408-5.648-1.648-18.912-54.864-7.536-50.896-43.872zm167.36 54.752l2.048 2.416c8.432 7.68-2.56 20.224-11.136 12.16l-4.336-3.44c-6.656 4.592-14.448 6.784-24.816 6.784-22.512 0-48.24-15.504-48.24-46.976s25.584-47.456 48.24-47.456c23.776 0 47.072 15.984 47.072 47.456 0 12.16-3.088 21.136-8.832 29.056zm-7.696-29.056c0-20.336-15.984-30.688-30.56-30.688-15.728 0-31.216 10.336-31.216 30.688 0 15.504 13.168 30.208 31.216 30.208 4.592 0 9.072-1.152 13.552-2.304l-14.576-13.44c-6.784-8.192 3.968-19.84 12.528-12.288l14.464 14.448c3.184-4.464 4.592-9.968 4.592-16.624zm35.376-37.216c0-4.224 3.584-7.808 8.064-7.808 4.096 0 7.552 3.6 7.552 7.808v64.096h34.8c12.528 0 12.8 16.752 0 16.752h-42.336c-4.48 0-8.064-3.184-8.064-7.792v-73.056h-.016z" fill="#fff"/><path d="M400 432H96v16h304c8.8 0 16-7.2 16-16v-16c0 8.8-7.2 16-16 16z" fill="#cad1d8"/></svg>