<svg xmlns="http://www.w3.org/2000/svg" viewBox="0 0 512 512"><path d="M128 0c-17.6 0-32 14.4-32 32v448c0 17.6 14.4 32 32 32h320c17.6 0 32-14.4 32-32V128L352 0H128z" fill="#e2e5e7"/><path d="M384 128h96L352 0v96c0 17.6 14.4 32 32 32z" fill="#b0b7bd"/><path fill="#cad1d8" d="M480 224l-96-96h96z"/><path d="M416 416c0 8.8-7.2 16-16 16H48c-8.8 0-16-7.2-16-16V256c0-8.8 7.2-16 16-16h352c8.8 0 16 7.2 16 16v160z" fill="#84bd5a"/><path d="M132.64 384c-8.064 0-11.264-7.792-6.656-13.296l45.552-60.512h-37.76c-11.12 0-10.224-15.712 0-15.712h51.568c9.712 0 12.528 9.184 5.632 16.624l-43.632 56.656h41.584c10.24 0 11.52 16.256-1.008 16.256h-55.28V384zm79.408-80.848c0-10.496 16.896-10.88 16.896 0v73.04c0 10.608-16.896 10.88-16.896 0v-73.04zm39.568 0c0-4.224 3.328-8.832 8.704-8.832h29.552c16.64 0 31.616 11.136 31.616 32.48 0 20.224-14.976 31.488-31.616 31.488h-21.36v16.896c0 5.632-3.584 8.816-8.192 8.816-4.224 0-8.704-3.184-8.704-8.816v-72.032zm16.88 7.28v31.872h21.36c8.576 0 15.36-7.568 15.36-15.504 0-8.944-6.784-16.368-15.36-16.368h-21.36z" fill="#fff"/><path d="M400 432H96v16h304c8.8 0 16-7.2 16-16v-16c0 8.8-7.2 16-16 16z" fill="#cad1d8"/></svg>